<svg xmlns="http://www.w3.org/2000/svg" viewBox="0 0 1400 1000">
  <defs>
    <style>
      .title { font: bold 24px sans-serif; fill: #1a1a1a; }
      .subtitle { font: bold 16px sans-serif; fill: #333; }
      .label { font: 14px sans-serif; fill: #444; }
      .small-label { font: 12px sans-serif; fill: #666; }
      .box { fill: #f8f9fa; stroke: #495057; stroke-width: 2; }
      .client-box { fill: #e3f2fd; stroke: #1976d2; stroke-width: 2; }
      .api-box { fill: #fff3e0; stroke: #f57c00; stroke-width: 2; }
      .workflow-box { fill: #f3e5f5; stroke: #7b1fa2; stroke-width: 2; }
      .agent-box { fill: #e8f5e9; stroke: #388e3c; stroke-width: 2; }
      .storage-box { fill: #fce4ec; stroke: #c2185b; stroke-width: 2; }
      .service-box { fill: #fff9c4; stroke: #f9a825; stroke-width: 2; }
      .arrow { fill: none; stroke: #666; stroke-width: 2; marker-end: url(#arrowhead); }
      .data-arrow { fill: none; stroke: #1976d2; stroke-width: 2; marker-end: url(#arrowhead-blue); stroke-dasharray: 5,5; }
    </style>
    <marker id="arrowhead" markerWidth="10" markerHeight="10" refX="9" refY="3" orient="auto">
      <polygon points="0 0, 10 3, 0 6" fill="#666" />
    </marker>
    <marker id="arrowhead-blue" markerWidth="10" markerHeight="10" refX="9" refY="3" orient="auto">
      <polygon points="0 0, 10 3, 0 6" fill="#1976d2" />
    </marker>
  </defs>

  <!-- Title -->
  <text x="700" y="30" text-anchor="middle" class="title">Multi-Agent Local RAG System Architecture (v0.3.1)</text>

  <!-- Client Layer -->
  <rect x="50" y="60" width="200" height="80" class="client-box" rx="5"/>
  <text x="150" y="85" text-anchor="middle" class="subtitle">Client Layer</text>
  <text x="150" y="105" text-anchor="middle" class="label">React + Vite + TS</text>
  <text x="150" y="125" text-anchor="middle" class="small-label">Port: 5173</text>

  <!-- API Gateway Layer -->
  <rect x="50" y="170" width="200" height="120" class="api-box" rx="5"/>
  <text x="150" y="195" text-anchor="middle" class="subtitle">API Gateway</text>
  <text x="150" y="215" text-anchor="middle" class="label">FastAPI</text>
  <text x="150" y="235" text-anchor="middle" class="small-label">Port: 8000</text>
  <text x="150" y="255" text-anchor="middle" class="small-label">Routes: /query, /sessions</text>
  <text x="150" y="275" text-anchor="middle" class="small-label">/documents, /admin/*</text>

  <!-- Workflow Orchestration -->
  <rect x="320" y="170" width="280" height="120" class="workflow-box" rx="5"/>
  <text x="460" y="195" text-anchor="middle" class="subtitle">Workflow Orchestration</text>
  <text x="460" y="215" text-anchor="middle" class="label">LangGraph StateGraph</text>
  <text x="460" y="235" text-anchor="middle" class="small-label">Nodes: router → adaptive_planner</text>
  <text x="460" y="255" text-anchor="middle" class="small-label">→ entry_decider → [agents]</text>
  <text x="460" y="275" text-anchor="middle" class="small-label">→ synthesis → END</text>

  <!-- Multi-Agent Layer -->
  <g id="agents">
    <rect x="320" y="320" width="130" height="100" class="agent-box" rx="5"/>
    <text x="385" y="345" text-anchor="middle" class="subtitle">Router Agent</text>
    <text x="385" y="365" text-anchor="middle" class="small-label">Query Classification</text>
    <text x="385" y="385" text-anchor="middle" class="small-label">Tier: Fast/Balanced</text>
    <text x="385" y="405" text-anchor="middle" class="small-label">/Deep</text>

    <rect x="470" y="320" width="130" height="100" class="agent-box" rx="5"/>
    <text x="535" y="345" text-anchor="middle" class="subtitle">Vector RAG</text>
    <text x="535" y="365" text-anchor="middle" class="small-label">Hybrid Retrieval</text>
    <text x="535" y="385" text-anchor="middle" class="small-label">Vector + BM25</text>
    <text x="535" y="405" text-anchor="middle" class="small-label">+ Reranking</text>

    <rect x="620" y="320" width="130" height="100" class="agent-box" rx="5"/>
    <text x="685" y="345" text-anchor="middle" class="subtitle">Graph RAG</text>
    <text x="685" y="365" text-anchor="middle" class="small-label">Neo4j Queries</text>
    <text x="685" y="385" text-anchor="middle" class="small-label">Knowledge Graph</text>
    <text x="685" y="405" text-anchor="middle" class="small-label">Traversal</text>

    <rect x="770" y="320" width="130" height="100" class="agent-box" rx="5"/>
    <text x="835" y="345" text-anchor="middle" class="subtitle">Web Research</text>
    <text x="835" y="365" text-anchor="middle" class="small-label">Web Search</text>
    <text x="835" y="385" text-anchor="middle" class="small-label">Fallback Agent</text>

    <rect x="920" y="320" width="130" height="100" class="agent-box" rx="5"/>
    <text x="985" y="345" text-anchor="middle" class="subtitle">Synthesis</text>
    <text x="985" y="365" text-anchor="middle" class="small-label">Answer Generation</text>
    <text x="985" y="385" text-anchor="middle" class="small-label">Grounding</text>
    <text x="985" y="405" text-anchor="middle" class="small-label">Safety Check</text>
  </g>

  <!-- Retrieval System -->
  <rect x="320" y="450" width="280" height="100" class="service-box" rx="5"/>
  <text x="460" y="475" text-anchor="middle" class="subtitle">Hybrid Retrieval System</text>
  <text x="460" y="495" text-anchor="middle" class="small-label">RRF Fusion | Adaptive Params</text>
  <text x="460" y="515" text-anchor="middle" class="small-label">Parent-Child Chunking</text>
  <text x="460" y="535" text-anchor="middle" class="small-label">Dual-Layer Caching (Redis + Memory)</text>

  <!-- Resilience Services -->
  <rect x="650" y="450" width="250" height="100" class="service-box" rx="5"/>
  <text x="775" y="475" text-anchor="middle" class="subtitle">Resilience Services</text>
  <text x="775" y="495" text-anchor="middle" class="small-label">Circuit Breaker | Bulkhead</text>
  <text x="775" y="515" text-anchor="middle" class="small-label">Query Guard | Quota Guard</text>
  <text x="775" y="535" text-anchor="middle" class="small-label">Background Queue | Alerting</text>

  <!-- Storage Layer -->
  <g id="storage">
    <rect x="50" y="580" width="180" height="100" class="storage-box" rx="5"/>
    <text x="140" y="605" text-anchor="middle" class="subtitle">Vector Store</text>
    <text x="140" y="625" text-anchor="middle" class="label">ChromaDB</text>
    <text x="140" y="645" text-anchor="middle" class="small-label">Embeddings</text>
    <text x="140" y="665" text-anchor="middle" class="small-label">Similarity Search</text>

    <rect x="250" y="580" width="180" height="100" class="storage-box" rx="5"/>
    <text x="340" y="605" text-anchor="middle" class="subtitle">Graph Database</text>
    <text x="340" y="625" text-anchor="middle" class="label">Neo4j</text>
    <text x="340" y="645" text-anchor="middle" class="small-label">Knowledge Graph</text>
    <text x="340" y="665" text-anchor="middle" class="small-label">Cypher Queries</text>

    <rect x="450" y="580" width="180" height="100" class="storage-box" rx="5"/>
    <text x="540" y="605" text-anchor="middle" class="subtitle">Document Store</text>
    <text x="540" y="625" text-anchor="middle" class="label">File System</text>
    <text x="540" y="645" text-anchor="middle" class="small-label">chunks.jsonl</text>
    <text x="540" y="665" text-anchor="middle" class="small-label">parents.jsonl</text>

    <rect x="650" y="580" width="180" height="100" class="storage-box" rx="5"/>
    <text x="740" y="605" text-anchor="middle" class="subtitle">Session Store</text>
    <text x="740" y="625" text-anchor="middle" class="label">SQLite</text>
    <text x="740" y="645" text-anchor="middle" class="small-label">Chat History</text>
    <text x="740" y="665" text-anchor="middle" class="small-label">User Sessions</text>

    <rect x="850" y="580" width="180" height="100" class="storage-box" rx="5"/>
    <text x="940" y="605" text-anchor="middle" class="subtitle">Cache Layer</text>
    <text x="940" y="625" text-anchor="middle" class="label">Redis</text>
    <text x="940" y="645" text-anchor="middle" class="small-label">Query Cache</text>
    <text x="940" y="665" text-anchor="middle" class="small-label">Retrieval Cache</text>
  </g>

  <!-- LLM Backends -->
  <rect x="1100" y="320" width="250" height="150" class="box" rx="5"/>
  <text x="1225" y="345" text-anchor="middle" class="subtitle">LLM Backends</text>
  <text x="1225" y="370" text-anchor="middle" class="label">OpenAI GPT-4</text>
  <text x="1225" y="390" text-anchor="middle" class="small-label">(Default: gpt-4-turbo)</text>
  <text x="1225" y="415" text-anchor="middle" class="label">Anthropic Claude</text>
  <text x="1225" y="435" text-anchor="middle" class="small-label">(claude-3-opus/sonnet)</text>
  <text x="1225" y="460" text-anchor="middle" class="label">Ollama (Local)</text>

  <!-- Ingestion Pipeline -->
  <rect x="1100" y="500" width="250" height="120" class="box" rx="5"/>
  <text x="1225" y="525" text-anchor="middle" class="subtitle">Ingestion Pipeline</text>
  <text x="1225" y="545" text-anchor="middle" class="small-label">PDF Loader + OCR</text>
  <text x="1225" y="565" text-anchor="middle" class="small-label">Image Loader + Vision API</text>
  <text x="1225" y="585" text-anchor="middle" class="small-label">Text Loader (Multi-format)</text>
  <text x="1225" y="605" text-anchor="middle" class="small-label">Auto-Ingest Watcher</text>

  <!-- Auth & RBAC -->
  <rect x="50" y="720" width="200" height="100" class="service-box" rx="5"/>
  <text x="150" y="745" text-anchor="middle" class="subtitle">Auth & RBAC</text>
  <text x="150" y="765" text-anchor="middle" class="small-label">User Management</text>
  <text x="150" y="785" text-anchor="middle" class="small-label">Session Management</text>
  <text x="150" y="805" text-anchor="middle" class="small-label">Audit Logging</text>

  <!-- Observability -->
  <rect x="280" y="720" width="220" height="100" class="service-box" rx="5"/>
  <text x="390" y="745" text-anchor="middle" class="subtitle">Observability</text>
  <text x="390" y="765" text-anchor="middle" class="small-label">OpenTelemetry Tracing</text>
  <text x="390" y="785" text-anchor="middle" class="small-label">Prometheus Metrics</text>
  <text x="390" y="805" text-anchor="middle" class="small-label">Health Checks (/health)</text>

  <!-- Tiered Execution -->
  <rect x="530" y="720" width="300" height="100" class="service-box" rx="5"/>
  <text x="680" y="745" text-anchor="middle" class="subtitle">Tiered Execution System</text>
  <text x="680" y="765" text-anchor="middle" class="small-label">Fast: top_k=5, rerank=3, &lt;800ms</text>
  <text x="680" y="785" text-anchor="middle" class="small-label">Balanced: top_k=10, rerank=5, &lt;2000ms</text>
  <text x="680" y="805" text-anchor="middle" class="small-label">Deep: top_k=20, rerank=10, &lt;5000ms</text>

  <!-- Config System -->
  <rect x="860" y="720" width="220" height="100" class="service-box" rx="5"/>
  <text x="970" y="745" text-anchor="middle" class="subtitle">Configuration</text>
  <text x="970" y="765" text-anchor="middle" class="small-label">Pydantic Settings</text>
  <text x="970" y="785" text-anchor="middle" class="small-label">.env Configuration</text>
  <text x="970" y="805" text-anchor="middle" class="small-label">Feature Flags</text>

  <!-- Arrows: Client to API -->
  <path d="M 150 140 L 150 170" class="arrow"/>

  <!-- Arrows: API to Workflow -->
  <path d="M 250 230 L 320 230" class="arrow"/>

  <!-- Arrows: Workflow to Agents -->
  <path d="M 460 290 L 385 320" class="arrow"/>
  <path d="M 460 290 L 535 320" class="arrow"/>
  <path d="M 460 290 L 685 320" class="arrow"/>
  <path d="M 460 290 L 835 320" class="arrow"/>
  <path d="M 535 420 L 985 320" class="arrow"/>
  <path d="M 685 420 L 985 320" class="arrow"/>
  <path d="M 835 420 L 985 320" class="arrow"/>

  <!-- Arrows: Agents to Retrieval -->
  <path d="M 535 420 L 460 450" class="arrow"/>

  <!-- Arrows: Agents to Resilience -->
  <path d="M 685 420 L 775 450" class="arrow"/>

  <!-- Arrows: Retrieval to Storage -->
  <path d="M 400 550 L 140 580" class="data-arrow"/>
  <path d="M 420 550 L 340 580" class="data-arrow"/>
  <path d="M 460 550 L 540 580" class="data-arrow"/>
  <path d="M 500 550 L 740 580" class="data-arrow"/>
  <path d="M 520 550 L 940 580" class="data-arrow"/>

  <!-- Arrows: Agents to LLM -->
  <path d="M 1050 370 L 1100 370" class="arrow"/>

  <!-- Arrows: Ingestion to Storage -->
  <path d="M 1100 560 L 630 630" class="data-arrow"/>
  <path d="M 1100 580 L 430 630" class="data-arrow"/>
  <path d="M 1100 600 L 230 630" class="data-arrow"/>

  <!-- Legend -->
  <g id="legend">
    <text x="1100" y="660" class="subtitle">Legend:</text>
    <line x1="1100" y1="670" x2="1150" y2="670" class="arrow"/>
    <text x="1160" y="675" class="small-label">Control Flow</text>
    <line x1="1100" y1="690" x2="1150" y2="690" class="data-arrow"/>
    <text x="1160" y="695" class="small-label">Data Flow</text>
  </g>

  <!-- Version Info -->
  <text x="700" y="970" text-anchor="middle" class="small-label">v0.3.1 | FastAPI + LangGraph + Neo4j + ChromaDB | Tiered Execution with Latency Budgets</text>
  <text x="700" y="990" text-anchor="middle" class="small-label">65 Modules | 29/29 Tests Passing | 90.7% Code Reduction from Refactoring</text>
</svg>
